<svg xmlns="http://www.w3.org/2000/svg" xmlns:xlink="http://www.w3.org/1999/xlink" width="500" zoomAndPan="magnify" viewBox="0 0 375 374.999991" height="500" preserveAspectRatio="xMidYMid meet" version="1.0"><defs><clipPath id="51f95f5f41"><path d="M 129.195312 111 L 299.992188 111 L 299.992188 261 L 129.195312 261 Z M 129.195312 111 " clip-rule="nonzero"/></clipPath><clipPath id="b49df862f9"><path d="M 210.410156 258.339844 L 130.109375 118.160156 C 129.261719 116.679688 129.265625 114.859375 130.121094 113.382812 C 130.976562 111.910156 132.554688 111 134.257812 111 L 294.757812 111 C 296.464844 111 298.042969 111.910156 298.894531 113.382812 C 299.75 114.859375 299.757812 116.679688 298.910156 118.160156 L 218.609375 258.339844 C 217.769531 259.8125 216.203125 260.71875 214.507812 260.71875 C 212.816406 260.71875 211.25 259.8125 210.410156 258.339844 Z M 210.410156 258.339844 " clip-rule="nonzero"/></clipPath><clipPath id="c8377a857e"><path d="M 69.304688 111 L 240.703125 111 L 240.703125 261.273438 L 69.304688 261.273438 Z M 69.304688 111 " clip-rule="nonzero"/></clipPath><clipPath id="f20d90d7e5"><path d="M 151.492188 258.992188 L 70.449219 117.507812 C 69.675781 116.164062 69.679688 114.507812 70.460938 113.167969 C 71.238281 111.824219 72.667969 111 74.21875 111 L 236.21875 111 C 237.769531 111 239.203125 111.824219 239.980469 113.167969 C 240.757812 114.507812 240.761719 116.164062 239.992188 117.507812 L 158.949219 258.992188 C 158.183594 260.328125 156.761719 261.152344 155.21875 261.152344 C 153.679688 261.152344 152.257812 260.328125 151.492188 258.992188 Z M 151.492188 258.992188 " clip-rule="nonzero"/></clipPath><clipPath id="d9b8715b91"><path d="M 135.292969 110.964844 L 235.792969 110.964844 L 235.792969 194.964844 L 135.292969 194.964844 Z M 135.292969 110.964844 " clip-rule="nonzero"/></clipPath></defs><g clip-path="url(#51f95f5f41)"><g clip-path="url(#b49df862f9)"><path fill="#4caf50" d="M 303.007812 265.5 L 126.179688 265.5 L 126.179688 111 L 303.007812 111 Z M 303.007812 265.5 " fill-opacity="1" fill-rule="nonzero"/></g></g><g clip-path="url(#c8377a857e)"><g clip-path="url(#f20d90d7e5)"><path fill="#169d53" d="M 243.71875 265.5 L 66.890625 265.5 L 66.890625 111 L 243.71875 111 Z M 243.71875 265.5 " fill-opacity="1" fill-rule="nonzero"/></g></g><g clip-path="url(#d9b8715b91)"><path fill="#ffffff" d="M 186.5625 34.207031 C 186.058594 32.570312 185.558594 30.914062 184.394531 29.613281 C 182.929688 27.984375 183.523438 26.292969 184.167969 24.628906 C 184.664062 23.351562 185.089844 22.0625 185.449219 20.742188 C 185.621094 20.101562 185.835938 19.351562 186.65625 19.347656 C 187.496094 19.34375 188.085938 19.71875 188.484375 20.617188 C 189.734375 23.433594 190.238281 26.339844 190.070312 29.40625 C 189.976562 31.105469 190.503906 32.664062 191.640625 33.96875 C 193.160156 35.714844 195.277344 35.972656 197.390625 35.066406 C 198.605469 34.542969 199.382812 33.683594 200.167969 32.769531 C 201.992188 30.652344 204.097656 29.109375 206.902344 28.425781 C 208.160156 28.121094 209.378906 28.191406 210.609375 28.09375 C 211.765625 28.003906 212.199219 28.9375 211.636719 29.945312 C 211.195312 30.730469 210.4375 31.117188 209.722656 31.539062 C 209.132812 31.878906 208.777344 32.316406 208.570312 32.957031 C 207.964844 34.851562 206.90625 36.246094 204.863281 36.894531 C 202.578125 37.621094 200.785156 39.183594 199.207031 40.960938 C 198.847656 41.367188 198.34375 41.816406 198.613281 42.429688 C 198.910156 43.097656 199.488281 43.605469 200.230469 43.632812 C 201.722656 43.691406 203.050781 44.410156 204.515625 44.585938 C 205 44.644531 205.371094 44.996094 205.738281 45.347656 C 207.386719 46.933594 208.308594 49.011719 209.445312 50.921875 C 210.3125 52.378906 209.820312 52.875 208.457031 52.703125 C 207.949219 52.640625 207.511719 52.859375 207.070312 53.109375 C 205.003906 54.277344 203.007812 54.074219 201.441406 52.339844 C 200.277344 51.042969 198.925781 50.03125 197.527344 49.039062 C 197.289062 48.867188 197.054688 48.710938 196.761719 48.832031 C 196.398438 48.984375 196.359375 49.332031 196.425781 49.636719 C 196.632812 50.546875 196.789062 51.449219 197.253906 52.3125 C 198.25 54.167969 198.960938 56.148438 199.121094 58.28125 C 199.15625 58.773438 199.042969 59.257812 198.824219 59.707031 C 198.144531 61.121094 197.441406 61.273438 196.21875 60.269531 C 195.976562 60.070312 195.753906 59.839844 195.488281 59.671875 C 193.910156 58.644531 193.210938 57.28125 193.699219 55.375 C 193.8125 54.917969 193.710938 54.398438 193.648438 53.914062 C 193.601562 53.554688 193.695312 53.027344 193.234375 52.925781 C 192.734375 52.8125 192.398438 53.222656 192.160156 53.617188 C 191.601562 54.550781 191.152344 55.535156 190.808594 56.578125 C 190.039062 58.941406 189.257812 61.304688 188.414062 63.648438 C 187.898438 65.078125 187.039062 66.328125 185.960938 67.40625 C 183.773438 69.605469 181.558594 70.066406 178.792969 68.71875 C 174.832031 66.785156 170.78125 65.015625 167.085938 62.574219 C 166.910156 62.460938 166.742188 62.332031 166.5625 62.222656 C 166.210938 62.015625 165.96875 61.414062 165.550781 61.589844 C 165.011719 61.816406 165.28125 62.460938 165.226562 62.921875 C 164.953125 65.328125 165.28125 67.675781 166.089844 69.945312 C 166.542969 71.222656 167.363281 72.328125 167.890625 73.597656 C 169.027344 76.304688 169.597656 79.144531 170.21875 81.976562 C 170.921875 85.195312 171.304688 88.464844 171.613281 91.753906 C 171.894531 94.765625 172.890625 97.632812 173.972656 100.4375 C 175.328125 103.957031 176.746094 107.445312 178.507812 110.804688 C 179.953125 113.5625 181.042969 116.5 182.960938 119 C 183.160156 119.257812 183.246094 119.710938 183.703125 119.636719 C 184.15625 119.570312 184.132812 119.128906 184.21875 118.808594 C 184.882812 116.339844 185.523438 113.867188 186.175781 111.390625 C 186.21875 111.222656 186.289062 111.0625 186.355469 110.898438 C 187.460938 108.121094 188.859375 107.371094 191.9375 109.34375 C 193.945312 110.632812 196.058594 111.03125 198.347656 110.550781 C 199.300781 110.351562 200.046875 109.832031 200.546875 108.917969 C 201.300781 107.539062 202.324219 106.410156 203.863281 105.832031 C 204.710938 105.515625 205.375 105.550781 205.71875 106.523438 C 205.828125 106.824219 205.953125 107.097656 206.324219 107.179688 C 207.433594 107.425781 206.988281 107.96875 206.484375 108.375 C 205.097656 109.511719 203.816406 110.757812 202.5625 112.03125 C 201.699219 112.90625 200.828125 113.769531 199.976562 114.652344 C 199.0625 115.601562 199.210938 116.757812 200.332031 117.46875 C 201.042969 117.917969 201.835938 118.023438 202.65625 117.976562 C 204.492188 117.878906 206.132812 118.367188 207.5 119.617188 C 208.390625 120.433594 209.386719 121.066406 210.484375 121.554688 C 210.734375 121.671875 211.039062 121.761719 210.992188 122.125 C 210.949219 122.453125 210.683594 122.625 210.402344 122.644531 C 208.597656 122.765625 206.96875 123.640625 205.191406 123.851562 C 203.417969 124.058594 201.785156 123.863281 200.539062 122.320312 C 200.066406 121.738281 199.386719 121.300781 198.613281 121.085938 C 197.105469 120.664062 195.933594 121.785156 196.175781 123.316406 C 196.640625 126.253906 196.679688 129.148438 195.425781 131.980469 C 194.191406 134.765625 194.332031 134.757812 196.878906 136.464844 C 199.777344 138.402344 202.75 140.214844 206.089844 141.222656 C 208.679688 142 211.199219 142.882812 213.609375 144.101562 C 214.101562 144.351562 214.660156 144.496094 215.199219 144.636719 C 218.160156 145.386719 220.359375 147.085938 221.691406 149.851562 C 222.648438 151.839844 223.585938 153.839844 224.695312 155.753906 C 225.03125 156.335938 225.425781 156.710938 226.132812 156.824219 C 228.949219 157.261719 230.738281 159.542969 230.394531 162.34375 C 230.265625 163.394531 230.492188 164.230469 231.070312 165.097656 C 233.074219 168.128906 234.585938 171.394531 235.601562 174.890625 C 236.875 179.28125 234.75 182.835938 230.277344 183.820312 C 226.566406 184.640625 222.882812 184.359375 219.207031 183.65625 C 218.574219 183.535156 218.078125 183.628906 217.523438 183.957031 C 215.089844 185.40625 212.355469 184.824219 210.769531 182.492188 C 210.222656 181.683594 209.578125 181.335938 208.609375 181.296875 C 206.183594 181.199219 203.800781 180.722656 201.457031 180.132812 C 199.664062 179.679688 198.292969 178.515625 197.078125 177.164062 C 196.09375 176.066406 195.140625 174.949219 194.148438 173.855469 C 193.777344 173.445312 193.367188 173.070312 192.8125 172.871094 C 188.882812 171.46875 185.941406 168.894531 183.816406 165.324219 C 182.316406 162.792969 180.761719 160.292969 178.996094 157.929688 C 178.292969 156.992188 177.496094 156.375 176.273438 156.457031 C 176.066406 156.472656 175.855469 156.445312 175.644531 156.421875 C 172.945312 156.082031 170.84375 157.046875 169.351562 159.324219 C 167.878906 161.578125 166.074219 163.519531 163.90625 165.121094 C 163.46875 165.441406 163.28125 165.8125 163.3125 166.367188 C 163.53125 169.96875 163.691406 173.578125 164.226562 177.15625 C 164.347656 177.964844 164.699219 178.398438 165.523438 178.539062 C 167.183594 178.828125 168.847656 179.050781 170.527344 179.148438 C 170.703125 179.15625 170.882812 179.144531 171.054688 179.167969 C 171.46875 179.222656 171.953125 179.210938 172.082031 179.726562 C 172.203125 180.234375 171.816406 180.46875 171.441406 180.695312 C 170.664062 181.171875 169.894531 181.660156 169.132812 182.160156 C 168.839844 182.351562 168.449219 182.574219 168.480469 182.925781 C 168.519531 183.355469 169.019531 183.285156 169.332031 183.378906 C 169.703125 183.492188 170.085938 183.542969 170.460938 183.636719 C 172.410156 184.105469 173.339844 185.710938 172.789062 187.628906 C 172.527344 188.535156 171.882812 188.929688 171.03125 188.574219 C 169.679688 188.003906 168.28125 187.484375 167.199219 186.433594 C 166.710938 185.957031 166.34375 185.855469 166.039062 186.585938 C 165.957031 186.777344 165.808594 186.9375 165.703125 187.121094 C 164.6875 188.890625 163.222656 189.875 161.117188 189.589844 C 159.855469 189.417969 159.011719 189.769531 158.453125 191.003906 C 158.117188 191.746094 157.472656 192.359375 156.921875 192.996094 C 155.886719 194.203125 153.214844 194.90625 151.714844 194.394531 C 151.121094 194.191406 150.941406 193.722656 150.976562 193.148438 C 151.046875 191.980469 151.566406 190.996094 152.277344 190.101562 C 153.105469 189.0625 153.953125 188.03125 154.78125 186.988281 C 155.019531 186.6875 155.316406 186.316406 155 185.964844 C 154.730469 185.667969 154.421875 186.035156 154.160156 186.152344 C 153.0625 186.644531 151.921875 186.984375 150.742188 187.183594 C 149.386719 187.410156 148.273438 187.050781 147.429688 185.878906 C 146.960938 185.230469 146.355469 184.679688 145.808594 184.089844 C 145.304688 183.554688 145.417969 183.167969 146.070312 182.890625 C 146.835938 182.566406 147.628906 182.523438 148.445312 182.546875 C 150.128906 182.601562 151.808594 182.652344 153.488281 182.414062 C 154.015625 182.339844 154.515625 182.1875 154.992188 181.96875 C 156.699219 181.199219 157.097656 179.808594 155.992188 178.300781 C 154.066406 175.671875 152.089844 173.074219 150.316406 170.335938 C 148.5625 167.625 147.417969 164.703125 147.890625 161.410156 C 148.328125 158.359375 150.007812 156.035156 152.519531 154.3125 C 154.085938 153.246094 155.714844 152.285156 157.144531 151.027344 C 159.804688 148.675781 160.429688 145.835938 158.699219 142.714844 C 157.054688 139.742188 155.242188 136.859375 153.738281 133.8125 C 152.664062 131.636719 151.625 129.460938 149.992188 127.632812 C 149.292969 126.847656 148.609375 126.042969 147.828125 125.34375 C 144.011719 121.929688 141.320312 117.664062 138.691406 113.351562 C 136.425781 109.628906 134.605469 105.683594 133.007812 101.644531 C 131.988281 99.078125 131.140625 96.4375 130.394531 93.78125 C 129.128906 89.261719 128.308594 84.667969 128.035156 79.960938 C 127.820312 76.269531 127.945312 72.601562 128.316406 68.953125 C 128.632812 65.84375 129.488281 62.808594 130.136719 59.746094 C 130.839844 56.414062 131.941406 53.15625 132.015625 49.683594 C 132.046875 48.273438 132.386719 46.871094 132.210938 45.429688 C 132.121094 44.679688 131.746094 44.234375 131.167969 43.839844 C 127.085938 41.042969 123.238281 37.9375 119.710938 34.476562 C 116.066406 30.898438 113.023438 26.824219 111.339844 21.949219 C 110.730469 20.191406 110.769531 18.1875 111.367188 16.367188 C 111.664062 15.464844 111.503906 14.472656 112.042969 13.652344 C 112.027344 13.710938 112.007812 13.765625 111.988281 13.820312 C 112.007812 13.765625 112.027344 13.710938 112.046875 13.660156 C 112.113281 11.863281 112.757812 10.191406 113.167969 8.46875 C 113.585938 6.710938 113.644531 4.914062 113.375 2.808594 C 112.558594 3.988281 111.945312 4.90625 111.289062 5.792969 C 110.953125 6.242188 110.566406 6.65625 110.164062 7.039062 C 109.046875 8.097656 107.832031 8.066406 106.386719 6.96875 C 105.449219 6.253906 105.199219 4.921875 105.730469 3.730469 C 106.714844 1.53125 108.148438 -0.363281 109.691406 -2.183594 C 109.839844 -2.359375 110.144531 -2.511719 109.996094 -2.789062 C 109.851562 -3.0625 109.558594 -2.871094 109.328125 -2.886719 C 107.152344 -3.007812 105.257812 -1.984375 103.253906 -1.417969 C 101.800781 -1.007812 100.332031 -1.175781 98.867188 -1.324219 C 98.433594 -1.367188 98.167969 -1.613281 98.054688 -2.03125 C 97.820312 -2.867188 97.34375 -3.539062 96.703125 -4.117188 C 96.253906 -4.523438 96.027344 -5.054688 96.21875 -5.632812 C 96.402344 -6.175781 96.902344 -6.332031 97.457031 -6.464844 C 99.96875 -7.058594 102.605469 -7.148438 105.023438 -8.121094 C 106.367188 -8.664062 107.707031 -9.269531 108.855469 -10.214844 C 110.171875 -11.300781 110.203125 -12.363281 108.921875 -13.511719 C 107.121094 -15.117188 105.214844 -16.617188 103.550781 -18.355469 C 101.890625 -20.089844 99.984375 -21.773438 100.105469 -24.558594 C 100.132812 -25.113281 99.855469 -25.632812 99.410156 -26.042969 C 99.089844 -26.339844 99.054688 -26.738281 99.316406 -27.089844 C 99.535156 -27.378906 99.878906 -27.609375 100.238281 -27.414062 C 102.058594 -26.4375 104.105469 -26.203125 106.039062 -25.597656 C 107.78125 -25.050781 108.960938 -23.800781 109.886719 -22.359375 C 110.425781 -21.527344 111.046875 -20.765625 111.675781 -20.050781 C 112.703125 -18.871094 113.636719 -17.59375 114.890625 -16.609375 C 115.707031 -15.964844 116.632812 -15.550781 117.609375 -15.339844 C 118.296875 -15.195312 118.996094 -15.488281 119.382812 -16.199219 C 119.867188 -17.101562 119.957031 -18.039062 119.339844 -18.882812 C 118.441406 -20.109375 117.734375 -21.429688 118.097656 -22.949219 C 118.355469 -24.035156 118.21875 -25.230469 119.035156 -26.203125 C 119.492188 -26.75 118.96875 -27.441406 118.742188 -27.976562 C 118.507812 -28.523438 118.382812 -29.101562 118.148438 -29.644531 C 117.929688 -30.144531 117.988281 -30.683594 118.449219 -31.085938 C 118.917969 -31.496094 119.355469 -31.414062 119.875 -31.09375 C 122.058594 -29.746094 123.382812 -27.929688 123.609375 -25.28125 C 123.816406 -22.878906 124.375 -20.507812 124.59375 -18.105469 C 124.957031 -14.105469 126.824219 -10.53125 127.671875 -6.664062 C 128.53125 -2.753906 128.484375 1.089844 127.515625 4.972656 C 126.761719 7.988281 126.113281 11.039062 125.929688 14.164062 C 125.875 15.109375 126.3125 15.714844 127.105469 16.078125 C 128.507812 16.71875 129.921875 17.324219 131.335938 17.933594 C 133.070312 18.679688 134.828125 19.375 136.417969 20.414062 C 137.609375 21.191406 139.019531 21.621094 140.011719 22.730469 C 140.332031 23.09375 140.753906 23.117188 140.96875 22.515625 C 142.027344 19.558594 142.941406 16.589844 143.378906 13.4375 C 143.761719 10.695312 143.109375 8.101562 143.003906 5.4375 C 142.949219 4.132812 143.121094 2.789062 143.363281 1.496094 C 144.085938 -2.40625 144.371094 -6.363281 144.464844 -10.300781 C 144.53125 -13.132812 144.449219 -16.023438 143.832031 -18.835938 C 143.757812 -19.175781 143.746094 -19.535156 143.75 -19.882812 C 143.796875 -22.8125 142.964844 -25.613281 142.453125 -28.457031 C 142.027344 -30.785156 141.453125 -33.089844 140.902344 -35.390625 C 140.453125 -37.269531 139.878906 -39.136719 139.261719 -40.984375 C 138.75 -42.519531 138.171875 -44.0625 137.808594 -45.652344 C 137.460938 -47.148438 136.734375 -48.519531 136.445312 -50.046875 C 136.128906 -51.746094 135.367188 -53.328125 134.808594 -54.960938 C 133.964844 -57.425781 133.203125 -59.917969 132.339844 -62.375 C 131.136719 -65.800781 130.003906 -69.25 128.949219 -72.722656 C 127.808594 -76.496094 126.632812 -80.261719 125.574219 -84.0625 C 124.625 -87.464844 123.71875 -90.882812 122.875 -94.3125 C 122.289062 -96.691406 121.851562 -99.105469 121.378906 -101.511719 C 120.042969 -108.257812 119.101562 -115.050781 118.773438 -121.925781 C 118.421875 -129.320312 118.902344 -136.644531 120.6875 -143.839844 C 121.828125 -148.417969 123.867188 -152.660156 126.046875 -156.835938 C 128.339844 -161.230469 131.015625 -165.371094 134.054688 -169.285156 C 138.058594 -174.441406 142.636719 -179.039062 148.042969 -182.695312 C 152.117188 -185.445312 156.617188 -187.445312 161.21875 -189.199219 C 165.742188 -190.925781 170.148438 -192.90625 174.273438 -195.476562 C 175.453125 -196.210938 176.789062 -196.5625 178.195312 -196.378906 C 179.347656 -196.230469 179.535156 -195.75 178.820312 -194.851562 C 176.929688 -192.492188 174.917969 -190.234375 172.492188 -188.417969 C 166.203125 -183.714844 160.03125 -178.863281 153.734375 -174.171875 C 146.640625 -168.886719 141.230469 -162.148438 137.410156 -154.160156 C 134.242188 -147.535156 132.707031 -140.488281 131.867188 -133.226562 C 131.449219 -129.628906 131.246094 -126.035156 131.339844 -122.429688 C 131.46875 -117.441406 132.167969 -112.535156 133.355469 -107.679688 C 134.699219 -102.1875 136.546875 -96.863281 138.585938 -91.613281 C 140.550781 -86.554688 142.785156 -81.605469 145.15625 -76.71875 C 147.296875 -72.308594 149.445312 -67.898438 151.488281 -63.445312 C 153.023438 -60.109375 154.550781 -56.753906 155.796875 -53.304688 C 157.871094 -47.589844 160.246094 -41.988281 161.984375 -36.144531 C 162.871094 -33.164062 163.855469 -30.195312 164.617188 -27.1875 C 165.3125 -24.453125 166.015625 -21.710938 166.574219 -18.933594 C 167.023438 -16.703125 167.445312 -14.476562 167.84375 -12.242188 C 168.4375 -8.929688 168.777344 -5.582031 169.1875 -2.25 C 169.785156 2.664062 169.941406 7.597656 169.824219 12.542969 C 169.714844 17.203125 169.164062 21.832031 168.757812 26.46875 C 168.484375 29.53125 168.246094 32.605469 167.980469 35.667969 C 167.855469 37.109375 168.460938 37.433594 169.429688 37.980469 C 170.765625 38.734375 171.511719 40.136719 172.4375 41.304688 C 174.003906 43.277344 175.640625 45.179688 177.332031 47.042969 C 177.921875 47.691406 178.332031 47.519531 178.65625 46.785156 C 179.746094 44.285156 180.960938 41.839844 182.417969 39.53125 C 182.894531 38.777344 183.480469 38.085938 184.082031 37.425781 C 184.765625 36.671875 185.21875 35.695312 186.332031 35.347656 C 186.726562 35.226562 186.691406 34.628906 186.5625 34.207031 Z M 186.5625 34.207031 " fill-opacity="1" fill-rule="nonzero"/></g></svg>